<svg width="16" height="16" viewBox="0 0 16 16" fill="none" xmlns="http://www.w3.org/2000/svg">
<path d="M13.5422 8.48467C13.6058 8.54482 13.6807 8.59184 13.7625 8.62305C13.8443 8.65426 13.9315 8.66905 14.019 8.66657C14.1066 8.66409 14.1927 8.6444 14.2727 8.60862C14.3526 8.57283 14.4247 8.52165 14.4848 8.458C14.545 8.39436 14.592 8.31949 14.6232 8.23767C14.6544 8.15585 14.6692 8.06868 14.6667 7.98115C14.6642 7.89361 14.6446 7.80742 14.6088 7.7275C14.573 7.64758 14.5218 7.57548 14.4582 7.51534L8.45816 1.84867C8.33438 1.73165 8.1705 1.66644 8.00016 1.66644C7.82982 1.66644 7.66594 1.73165 7.54216 1.84867L1.54149 7.51534C1.47645 7.57509 1.42393 7.64716 1.38698 7.72738C1.35003 7.8076 1.32939 7.89436 1.32625 7.98262C1.32312 8.07088 1.33755 8.15889 1.36871 8.24153C1.39988 8.32417 1.44715 8.39979 1.50779 8.464C1.56842 8.52822 1.64122 8.57974 1.72193 8.61559C1.80265 8.65143 1.88969 8.67088 1.97798 8.6728C2.06628 8.67472 2.15408 8.65908 2.23628 8.62679C2.31849 8.59449 2.39345 8.54618 2.45683 8.48467L8.00016 3.25L13.5422 8.48467Z" fill="white"/>
</svg>
