<svg width="89" height="97" viewBox="0 0 89 97" fill="none" xmlns="http://www.w3.org/2000/svg">
<g filter="url(#filter0_d_70_241)">
<path d="M50 32C47.7769 32 46.0769 33.55 46.0769 35.5769V42.7308C46.0769 44.7577 47.7769 46.3077 50 46.3077H57.8462L63.0769 51.0769V46.3077C65.3 46.3077 67 44.7577 67 42.7308V35.5769C67 33.55 65.3 32 63.0769 32H50ZM55.4766 35.5769H57.7232L59.9306 42.7308H57.9691L57.4368 40.9423H55.4753L54.9862 42.7308H53.2692L55.4766 35.5769ZM56.5385 36.7692C56.4077 37.2462 56.2612 37.828 56.1292 38.1857L55.763 39.75H57.3152L56.9465 38.1845C56.6862 37.828 56.5385 37.2462 56.5385 36.7692ZM36.9231 43.9231C34.7 43.9231 33 45.4731 33 47.5V54.6538C33 56.6808 34.7 58.2308 36.9231 58.2308V63L42.1538 58.2308H50C52.2231 58.2308 53.9231 56.6808 53.9231 54.6538V47.5H50C47.5154 47.5 45.546 45.95 44.8922 43.9231H36.9231ZM42.9306 47.3879C45.1537 47.3879 46.1998 49.0572 46.1998 50.9648C46.1998 52.6341 45.5708 53.6928 44.5247 54.1698C45.0478 54.4082 45.6676 54.5346 46.3215 54.6538L45.8324 55.8462C44.917 55.6077 43.9676 55.2357 43.0522 54.8768C42.9215 54.7576 42.6926 54.7659 42.5618 54.7659C40.9926 54.6467 39.5385 53.4615 39.5385 51.0769C39.5385 49.05 40.8383 47.3879 42.9306 47.3879ZM42.9306 48.6923C41.8845 48.6923 41.3771 49.7654 41.3771 51.0769C41.3771 52.5077 41.8845 53.4615 42.9306 53.4615C43.9768 53.4615 44.5234 52.3885 44.5234 51.0769C44.5234 49.7654 43.9768 48.6923 42.9306 48.6923Z" fill="#D9D9D9" fill-opacity="0.3"/>
<path d="M50 32C47.7769 32 46.0769 33.55 46.0769 35.5769V42.7308C46.0769 44.7577 47.7769 46.3077 50 46.3077H57.8462L63.0769 51.0769V46.3077C65.3 46.3077 67 44.7577 67 42.7308V35.5769C67 33.55 65.3 32 63.0769 32H50ZM55.4766 35.5769H57.7232L59.9306 42.7308H57.9691L57.4368 40.9423H55.4753L54.9862 42.7308H53.2692L55.4766 35.5769ZM56.5385 36.7692C56.4077 37.2462 56.2612 37.828 56.1292 38.1857L55.763 39.75H57.3152L56.9465 38.1845C56.6862 37.828 56.5385 37.2462 56.5385 36.7692ZM36.9231 43.9231C34.7 43.9231 33 45.4731 33 47.5V54.6538C33 56.6808 34.7 58.2308 36.9231 58.2308V63L42.1538 58.2308H50C52.2231 58.2308 53.9231 56.6808 53.9231 54.6538V47.5H50C47.5154 47.5 45.546 45.95 44.8922 43.9231H36.9231ZM42.9306 47.3879C45.1537 47.3879 46.1998 49.0572 46.1998 50.9648C46.1998 52.6341 45.5708 53.6928 44.5247 54.1698C45.0478 54.4082 45.6676 54.5346 46.3215 54.6538L45.8324 55.8462C44.917 55.6077 43.9676 55.2357 43.0522 54.8768C42.9215 54.7576 42.6926 54.7659 42.5618 54.7659C40.9926 54.6467 39.5385 53.4615 39.5385 51.0769C39.5385 49.05 40.8383 47.3879 42.9306 47.3879ZM42.9306 48.6923C41.8845 48.6923 41.3771 49.7654 41.3771 51.0769C41.3771 52.5077 41.8845 53.4615 42.9306 53.4615C43.9768 53.4615 44.5234 52.3885 44.5234 51.0769C44.5234 49.7654 43.9768 48.6923 42.9306 48.6923Z" fill="#EEF9FF"/>
<path d="M50 32C47.7769 32 46.0769 33.55 46.0769 35.5769V42.7308C46.0769 44.7577 47.7769 46.3077 50 46.3077H57.8462L63.0769 51.0769V46.3077C65.3 46.3077 67 44.7577 67 42.7308V35.5769C67 33.55 65.3 32 63.0769 32H50ZM55.4766 35.5769H57.7232L59.9306 42.7308H57.9691L57.4368 40.9423H55.4753L54.9862 42.7308H53.2692L55.4766 35.5769ZM56.5385 36.7692C56.4077 37.2462 56.2612 37.828 56.1292 38.1857L55.763 39.75H57.3152L56.9465 38.1845C56.6862 37.828 56.5385 37.2462 56.5385 36.7692ZM36.9231 43.9231C34.7 43.9231 33 45.4731 33 47.5V54.6538C33 56.6808 34.7 58.2308 36.9231 58.2308V63L42.1538 58.2308H50C52.2231 58.2308 53.9231 56.6808 53.9231 54.6538V47.5H50C47.5154 47.5 45.546 45.95 44.8922 43.9231H36.9231ZM42.9306 47.3879C45.1537 47.3879 46.1998 49.0572 46.1998 50.9648C46.1998 52.6341 45.5708 53.6928 44.5247 54.1698C45.0478 54.4082 45.6676 54.5346 46.3215 54.6538L45.8324 55.8462C44.917 55.6077 43.9676 55.2357 43.0522 54.8768C42.9215 54.7576 42.6926 54.7659 42.5618 54.7659C40.9926 54.6467 39.5385 53.4615 39.5385 51.0769C39.5385 49.05 40.8383 47.3879 42.9306 47.3879ZM42.9306 48.6923C41.8845 48.6923 41.3771 49.7654 41.3771 51.0769C41.3771 52.5077 41.8845 53.4615 42.9306 53.4615C43.9768 53.4615 44.5234 52.3885 44.5234 51.0769C44.5234 49.7654 43.9768 48.6923 42.9306 48.6923Z" fill="url(#paint0_radial_70_241)"/>
<path d="M50 32C47.7769 32 46.0769 33.55 46.0769 35.5769V42.7308C46.0769 44.7577 47.7769 46.3077 50 46.3077H57.8462L63.0769 51.0769V46.3077C65.3 46.3077 67 44.7577 67 42.7308V35.5769C67 33.55 65.3 32 63.0769 32H50ZM55.4766 35.5769H57.7232L59.9306 42.7308H57.9691L57.4368 40.9423H55.4753L54.9862 42.7308H53.2692L55.4766 35.5769ZM56.5385 36.7692C56.4077 37.2462 56.2612 37.828 56.1292 38.1857L55.763 39.75H57.3152L56.9465 38.1845C56.6862 37.828 56.5385 37.2462 56.5385 36.7692ZM36.9231 43.9231C34.7 43.9231 33 45.4731 33 47.5V54.6538C33 56.6808 34.7 58.2308 36.9231 58.2308V63L42.1538 58.2308H50C52.2231 58.2308 53.9231 56.6808 53.9231 54.6538V47.5H50C47.5154 47.5 45.546 45.95 44.8922 43.9231H36.9231ZM42.9306 47.3879C45.1537 47.3879 46.1998 49.0572 46.1998 50.9648C46.1998 52.6341 45.5708 53.6928 44.5247 54.1698C45.0478 54.4082 45.6676 54.5346 46.3215 54.6538L45.8324 55.8462C44.917 55.6077 43.9676 55.2357 43.0522 54.8768C42.9215 54.7576 42.6926 54.7659 42.5618 54.7659C40.9926 54.6467 39.5385 53.4615 39.5385 51.0769C39.5385 49.05 40.8383 47.3879 42.9306 47.3879ZM42.9306 48.6923C41.8845 48.6923 41.3771 49.7654 41.3771 51.0769C41.3771 52.5077 41.8845 53.4615 42.9306 53.4615C43.9768 53.4615 44.5234 52.3885 44.5234 51.0769C44.5234 49.7654 43.9768 48.6923 42.9306 48.6923Z" fill="url(#paint1_radial_70_241)"/>
<path d="M50 32C47.7769 32 46.0769 33.55 46.0769 35.5769V42.7308C46.0769 44.7577 47.7769 46.3077 50 46.3077H57.8462L63.0769 51.0769V46.3077C65.3 46.3077 67 44.7577 67 42.7308V35.5769C67 33.55 65.3 32 63.0769 32H50ZM55.4766 35.5769H57.7232L59.9306 42.7308H57.9691L57.4368 40.9423H55.4753L54.9862 42.7308H53.2692L55.4766 35.5769ZM56.5385 36.7692C56.4077 37.2462 56.2612 37.828 56.1292 38.1857L55.763 39.75H57.3152L56.9465 38.1845C56.6862 37.828 56.5385 37.2462 56.5385 36.7692ZM36.9231 43.9231C34.7 43.9231 33 45.4731 33 47.5V54.6538C33 56.6808 34.7 58.2308 36.9231 58.2308V63L42.1538 58.2308H50C52.2231 58.2308 53.9231 56.6808 53.9231 54.6538V47.5H50C47.5154 47.5 45.546 45.95 44.8922 43.9231H36.9231ZM42.9306 47.3879C45.1537 47.3879 46.1998 49.0572 46.1998 50.9648C46.1998 52.6341 45.5708 53.6928 44.5247 54.1698C45.0478 54.4082 45.6676 54.5346 46.3215 54.6538L45.8324 55.8462C44.917 55.6077 43.9676 55.2357 43.0522 54.8768C42.9215 54.7576 42.6926 54.7659 42.5618 54.7659C40.9926 54.6467 39.5385 53.4615 39.5385 51.0769C39.5385 49.05 40.8383 47.3879 42.9306 47.3879ZM42.9306 48.6923C41.8845 48.6923 41.3771 49.7654 41.3771 51.0769C41.3771 52.5077 41.8845 53.4615 42.9306 53.4615C43.9768 53.4615 44.5234 52.3885 44.5234 51.0769C44.5234 49.7654 43.9768 48.6923 42.9306 48.6923Z" fill="url(#paint2_radial_70_241)"/>
<path d="M50 32C47.7769 32 46.0769 33.55 46.0769 35.5769V42.7308C46.0769 44.7577 47.7769 46.3077 50 46.3077H57.8462L63.0769 51.0769V46.3077C65.3 46.3077 67 44.7577 67 42.7308V35.5769C67 33.55 65.3 32 63.0769 32H50ZM55.4766 35.5769H57.7232L59.9306 42.7308H57.9691L57.4368 40.9423H55.4753L54.9862 42.7308H53.2692L55.4766 35.5769ZM56.5385 36.7692C56.4077 37.2462 56.2612 37.828 56.1292 38.1857L55.763 39.75H57.3152L56.9465 38.1845C56.6862 37.828 56.5385 37.2462 56.5385 36.7692ZM36.9231 43.9231C34.7 43.9231 33 45.4731 33 47.5V54.6538C33 56.6808 34.7 58.2308 36.9231 58.2308V63L42.1538 58.2308H50C52.2231 58.2308 53.9231 56.6808 53.9231 54.6538V47.5H50C47.5154 47.5 45.546 45.95 44.8922 43.9231H36.9231ZM42.9306 47.3879C45.1537 47.3879 46.1998 49.0572 46.1998 50.9648C46.1998 52.6341 45.5708 53.6928 44.5247 54.1698C45.0478 54.4082 45.6676 54.5346 46.3215 54.6538L45.8324 55.8462C44.917 55.6077 43.9676 55.2357 43.0522 54.8768C42.9215 54.7576 42.6926 54.7659 42.5618 54.7659C40.9926 54.6467 39.5385 53.4615 39.5385 51.0769C39.5385 49.05 40.8383 47.3879 42.9306 47.3879ZM42.9306 48.6923C41.8845 48.6923 41.3771 49.7654 41.3771 51.0769C41.3771 52.5077 41.8845 53.4615 42.9306 53.4615C43.9768 53.4615 44.5234 52.3885 44.5234 51.0769C44.5234 49.7654 43.9768 48.6923 42.9306 48.6923Z" fill="url(#paint3_radial_70_241)" fill-opacity="0.2"/>
</g>
<defs>
<filter id="filter0_d_70_241" x="0.299999" y="0.299999" width="99.4" height="96.4" filterUnits="userSpaceOnUse" color-interpolation-filters="sRGB">
<feFlood flood-opacity="0" result="BackgroundImageFix"/>
<feColorMatrix in="SourceAlpha" type="matrix" values="0 0 0 0 0 0 0 0 0 0 0 0 0 0 0 0 0 0 127 0" result="hardAlpha"/>
<feOffset dy="1"/>
<feGaussianBlur stdDeviation="16.35"/>
<feComposite in2="hardAlpha" operator="out"/>
<feColorMatrix type="matrix" values="0 0 0 0 0.0862745 0 0 0 0 0.545098 0 0 0 0 0.847059 0 0 0 0.78 0"/>
<feBlend mode="normal" in2="BackgroundImageFix" result="effect1_dropShadow_70_241"/>
<feBlend mode="normal" in="SourceGraphic" in2="effect1_dropShadow_70_241" result="shape"/>
</filter>
<radialGradient id="paint0_radial_70_241" cx="0" cy="0" r="1" gradientUnits="userSpaceOnUse" gradientTransform="translate(44.4943 65.9063) rotate(-45.7744) scale(28.3893 33.8965)">
<stop stop-color="#6681E2" stop-opacity="0.81"/>
<stop offset="0.953677" stop-color="#6681E2" stop-opacity="0"/>
</radialGradient>
<radialGradient id="paint1_radial_70_241" cx="0" cy="0" r="1" gradientUnits="userSpaceOnUse" gradientTransform="translate(39.858 24.9766) rotate(94.2554) scale(32.5429 29.0486)">
<stop stop-color="#1D52A0"/>
<stop offset="1" stop-color="#1D52A0" stop-opacity="0.18"/>
</radialGradient>
<radialGradient id="paint2_radial_70_241" cx="0" cy="0" r="1" gradientUnits="userSpaceOnUse" gradientTransform="translate(68.7386 27.1563) rotate(134.916) scale(50.6164 43.3147)">
<stop offset="0.196645" stop-color="#13E5D5" stop-opacity="0.5"/>
<stop offset="0.710624" stop-color="#13E5D5" stop-opacity="0.06"/>
</radialGradient>
<radialGradient id="paint3_radial_70_241" cx="0" cy="0" r="1" gradientUnits="userSpaceOnUse" gradientTransform="translate(50 37.3281) rotate(90) scale(25.6719 37.4773)">
<stop stop-color="white" stop-opacity="0.49"/>
<stop offset="1" stop-color="white" stop-opacity="0.19"/>
</radialGradient>
</defs>
</svg>
