<svg width="34" height="31" viewBox="0 0 34 31" fill="none" xmlns="http://www.w3.org/2000/svg">
<path d="M17 0C14.7769 0 13.0769 1.55 13.0769 3.57692V10.7308C13.0769 12.7577 14.7769 14.3077 17 14.3077H24.8462L30.0769 19.0769V14.3077C32.3 14.3077 34 12.7577 34 10.7308V3.57692C34 1.55 32.3 0 30.0769 0H17ZM22.4766 3.57692H24.7232L26.9306 10.7308H24.9691L24.4368 8.94231H22.4753L21.9862 10.7308H20.2692L22.4766 3.57692ZM23.5385 4.76923C23.4077 5.24615 23.2612 5.828 23.1292 6.18569L22.763 7.75H24.3152L23.9465 6.1845C23.6862 5.828 23.5385 5.24615 23.5385 4.76923ZM3.92308 11.9231C1.7 11.9231 0 13.4731 0 15.5V22.6538C0 24.6808 1.7 26.2308 3.92308 26.2308V31L9.15385 26.2308H17C19.2231 26.2308 20.9231 24.6808 20.9231 22.6538V15.5H17C14.5154 15.5 12.546 13.95 11.8922 11.9231H3.92308ZM9.93062 15.3879C12.1537 15.3879 13.1998 17.0572 13.1998 18.9648C13.1998 20.6341 12.5708 21.6928 11.5247 22.1698C12.0478 22.4082 12.6676 22.5346 13.3215 22.6538L12.8324 23.8462C11.917 23.6077 10.9676 23.2357 10.0522 22.8768C9.92146 22.7576 9.69261 22.7659 9.56185 22.7659C7.99261 22.6467 6.53846 21.4615 6.53846 19.0769C6.53846 17.05 7.83831 15.3879 9.93062 15.3879ZM9.93062 16.6923C8.88446 16.6923 8.37708 17.7654 8.37708 19.0769C8.37708 20.5077 8.88446 21.4615 9.93062 21.4615C10.9768 21.4615 11.5234 20.3885 11.5234 19.0769C11.5234 17.7654 10.9768 16.6923 9.93062 16.6923Z" fill="#D9D9D9" fill-opacity="0.3"/>
</svg>
