<svg width="40" height="23" viewBox="0 0 40 23" fill="none" xmlns="http://www.w3.org/2000/svg">
<path d="M12.5215 1C3.15068 1.33409 1.64537 8.64209 2.06346 12.255C0.390139 15.2571 0.900821 16.0064 2.15509 17.2569C8.43028 23.0939 20.1416 22.6768 25.5796 20.593C31.2687 18.2582 34.1696 13.8625 34.4474 11.5C39.4683 8.16482 39.5695 2.52823 38.8726 1C38.1281 2.25045 35.9813 3.16873 34.4483 3.86364C32.775 4.19773 30.3676 2.94536 29.6708 1.83332C29.1916 4.34091 29.6708 6.25 30.9251 7.25323C33.1091 8.92082 31.999 10.6056 31.5809 11.0227C29.7711 12.8268 26.3251 11.9677 24.6509 9.337C20.1416 2.25045 15.3097 1 12.5215 1Z" fill="white" stroke="white" stroke-linecap="round" stroke-linejoin="round"/>
<path d="M1.95459 15.3181C4.65882 15.8259 9.97277 16.8014 13.4091 14.3635" stroke="white" stroke-linecap="round" stroke-linejoin="round"/>
<path d="M8.63663 9.59077C9.69099 9.59077 10.5457 8.73604 10.5457 7.68167C10.5457 6.62731 9.69099 5.77258 8.63663 5.77258C7.58227 5.77258 6.72754 6.62731 6.72754 7.68167C6.72754 8.73604 7.58227 9.59077 8.63663 9.59077Z" fill="black"/>
</svg>
