<svg width="87" height="89" viewBox="0 0 87 89" fill="none" xmlns="http://www.w3.org/2000/svg">
<g filter="url(#filter0_d_21_2494)">
<path d="M49.3727 34.2274C46.5279 32.7694 42.7759 32 38.5 32C34.2241 32 30.4721 32.7694 27.6273 34.2274C24.6863 35.7334 23 37.9157 23 40.2143V46.7857C23 49.0843 24.6863 51.2666 27.6273 52.7726C30.4721 54.2306 34.2308 55 38.5 55C42.7692 55 46.5279 54.2306 49.3727 52.7726C52.3124 51.2666 54 49.0843 54 46.7857V40.2143C54 37.9157 52.3137 35.7334 49.3727 34.2274ZM29.0624 37.1654C31.4288 35.9538 34.78 35.2857 38.5 35.2857C42.22 35.2857 45.5712 35.9538 47.9376 37.1654C49.6988 38.0676 50.7931 39.2368 50.7931 40.2143C50.7931 41.1918 49.6988 42.361 47.9376 43.2632C45.5712 44.4748 42.22 45.1429 38.5 45.1429C34.78 45.1429 31.4288 44.4748 29.0624 43.2632C27.3012 42.361 26.2069 41.1918 26.2069 40.2143C26.2069 39.2368 27.3012 38.0676 29.0624 37.1654ZM45.4483 50.808C43.7039 51.3001 41.911 51.5894 40.1034 51.6705V48.3848C41.9045 48.3095 43.6944 48.0568 45.4483 47.6304V50.808ZM31.5517 47.6373C33.3056 48.0637 35.0955 48.3163 36.8966 48.3916V51.6773C35.089 51.5962 33.2961 51.3069 31.5517 50.8148V47.6373ZM26.2069 46.7857V45.3537C26.662 45.6673 27.1365 45.9504 27.6273 46.2011C27.8598 46.3202 28.1003 46.4339 28.3448 46.5434V49.428C27.0086 48.5983 26.2069 47.6222 26.2069 46.7857ZM48.6552 49.428V46.5434C48.8997 46.4339 49.1402 46.3202 49.3727 46.2011C49.8636 45.9504 50.338 45.6673 50.7931 45.3537V46.7857C50.7931 47.6222 49.9914 48.5983 48.6552 49.428Z" fill="#D9D9D9" fill-opacity="0.3"/>
<path d="M49.3727 34.2274C46.5279 32.7694 42.7759 32 38.5 32C34.2241 32 30.4721 32.7694 27.6273 34.2274C24.6863 35.7334 23 37.9157 23 40.2143V46.7857C23 49.0843 24.6863 51.2666 27.6273 52.7726C30.4721 54.2306 34.2308 55 38.5 55C42.7692 55 46.5279 54.2306 49.3727 52.7726C52.3124 51.2666 54 49.0843 54 46.7857V40.2143C54 37.9157 52.3137 35.7334 49.3727 34.2274ZM29.0624 37.1654C31.4288 35.9538 34.78 35.2857 38.5 35.2857C42.22 35.2857 45.5712 35.9538 47.9376 37.1654C49.6988 38.0676 50.7931 39.2368 50.7931 40.2143C50.7931 41.1918 49.6988 42.361 47.9376 43.2632C45.5712 44.4748 42.22 45.1429 38.5 45.1429C34.78 45.1429 31.4288 44.4748 29.0624 43.2632C27.3012 42.361 26.2069 41.1918 26.2069 40.2143C26.2069 39.2368 27.3012 38.0676 29.0624 37.1654ZM45.4483 50.808C43.7039 51.3001 41.911 51.5894 40.1034 51.6705V48.3848C41.9045 48.3095 43.6944 48.0568 45.4483 47.6304V50.808ZM31.5517 47.6373C33.3056 48.0637 35.0955 48.3163 36.8966 48.3916V51.6773C35.089 51.5962 33.2961 51.3069 31.5517 50.8148V47.6373ZM26.2069 46.7857V45.3537C26.662 45.6673 27.1365 45.9504 27.6273 46.2011C27.8598 46.3202 28.1003 46.4339 28.3448 46.5434V49.428C27.0086 48.5983 26.2069 47.6222 26.2069 46.7857ZM48.6552 49.428V46.5434C48.8997 46.4339 49.1402 46.3202 49.3727 46.2011C49.8636 45.9504 50.338 45.6673 50.7931 45.3537V46.7857C50.7931 47.6222 49.9914 48.5983 48.6552 49.428Z" fill="#EEF9FF"/>
<path d="M49.3727 34.2274C46.5279 32.7694 42.7759 32 38.5 32C34.2241 32 30.4721 32.7694 27.6273 34.2274C24.6863 35.7334 23 37.9157 23 40.2143V46.7857C23 49.0843 24.6863 51.2666 27.6273 52.7726C30.4721 54.2306 34.2308 55 38.5 55C42.7692 55 46.5279 54.2306 49.3727 52.7726C52.3124 51.2666 54 49.0843 54 46.7857V40.2143C54 37.9157 52.3137 35.7334 49.3727 34.2274ZM29.0624 37.1654C31.4288 35.9538 34.78 35.2857 38.5 35.2857C42.22 35.2857 45.5712 35.9538 47.9376 37.1654C49.6988 38.0676 50.7931 39.2368 50.7931 40.2143C50.7931 41.1918 49.6988 42.361 47.9376 43.2632C45.5712 44.4748 42.22 45.1429 38.5 45.1429C34.78 45.1429 31.4288 44.4748 29.0624 43.2632C27.3012 42.361 26.2069 41.1918 26.2069 40.2143C26.2069 39.2368 27.3012 38.0676 29.0624 37.1654ZM45.4483 50.808C43.7039 51.3001 41.911 51.5894 40.1034 51.6705V48.3848C41.9045 48.3095 43.6944 48.0568 45.4483 47.6304V50.808ZM31.5517 47.6373C33.3056 48.0637 35.0955 48.3163 36.8966 48.3916V51.6773C35.089 51.5962 33.2961 51.3069 31.5517 50.8148V47.6373ZM26.2069 46.7857V45.3537C26.662 45.6673 27.1365 45.9504 27.6273 46.2011C27.8598 46.3202 28.1003 46.4339 28.3448 46.5434V49.428C27.0086 48.5983 26.2069 47.6222 26.2069 46.7857ZM48.6552 49.428V46.5434C48.8997 46.4339 49.1402 46.3202 49.3727 46.2011C49.8636 45.9504 50.338 45.6673 50.7931 45.3537V46.7857C50.7931 47.6222 49.9914 48.5983 48.6552 49.428Z" fill="url(#paint0_radial_21_2494)"/>
<path d="M49.3727 34.2274C46.5279 32.7694 42.7759 32 38.5 32C34.2241 32 30.4721 32.7694 27.6273 34.2274C24.6863 35.7334 23 37.9157 23 40.2143V46.7857C23 49.0843 24.6863 51.2666 27.6273 52.7726C30.4721 54.2306 34.2308 55 38.5 55C42.7692 55 46.5279 54.2306 49.3727 52.7726C52.3124 51.2666 54 49.0843 54 46.7857V40.2143C54 37.9157 52.3137 35.7334 49.3727 34.2274ZM29.0624 37.1654C31.4288 35.9538 34.78 35.2857 38.5 35.2857C42.22 35.2857 45.5712 35.9538 47.9376 37.1654C49.6988 38.0676 50.7931 39.2368 50.7931 40.2143C50.7931 41.1918 49.6988 42.361 47.9376 43.2632C45.5712 44.4748 42.22 45.1429 38.5 45.1429C34.78 45.1429 31.4288 44.4748 29.0624 43.2632C27.3012 42.361 26.2069 41.1918 26.2069 40.2143C26.2069 39.2368 27.3012 38.0676 29.0624 37.1654ZM45.4483 50.808C43.7039 51.3001 41.911 51.5894 40.1034 51.6705V48.3848C41.9045 48.3095 43.6944 48.0568 45.4483 47.6304V50.808ZM31.5517 47.6373C33.3056 48.0637 35.0955 48.3163 36.8966 48.3916V51.6773C35.089 51.5962 33.2961 51.3069 31.5517 50.8148V47.6373ZM26.2069 46.7857V45.3537C26.662 45.6673 27.1365 45.9504 27.6273 46.2011C27.8598 46.3202 28.1003 46.4339 28.3448 46.5434V49.428C27.0086 48.5983 26.2069 47.6222 26.2069 46.7857ZM48.6552 49.428V46.5434C48.8997 46.4339 49.1402 46.3202 49.3727 46.2011C49.8636 45.9504 50.338 45.6673 50.7931 45.3537V46.7857C50.7931 47.6222 49.9914 48.5983 48.6552 49.428Z" fill="url(#paint1_radial_21_2494)"/>
<path d="M49.3727 34.2274C46.5279 32.7694 42.7759 32 38.5 32C34.2241 32 30.4721 32.7694 27.6273 34.2274C24.6863 35.7334 23 37.9157 23 40.2143V46.7857C23 49.0843 24.6863 51.2666 27.6273 52.7726C30.4721 54.2306 34.2308 55 38.5 55C42.7692 55 46.5279 54.2306 49.3727 52.7726C52.3124 51.2666 54 49.0843 54 46.7857V40.2143C54 37.9157 52.3137 35.7334 49.3727 34.2274ZM29.0624 37.1654C31.4288 35.9538 34.78 35.2857 38.5 35.2857C42.22 35.2857 45.5712 35.9538 47.9376 37.1654C49.6988 38.0676 50.7931 39.2368 50.7931 40.2143C50.7931 41.1918 49.6988 42.361 47.9376 43.2632C45.5712 44.4748 42.22 45.1429 38.5 45.1429C34.78 45.1429 31.4288 44.4748 29.0624 43.2632C27.3012 42.361 26.2069 41.1918 26.2069 40.2143C26.2069 39.2368 27.3012 38.0676 29.0624 37.1654ZM45.4483 50.808C43.7039 51.3001 41.911 51.5894 40.1034 51.6705V48.3848C41.9045 48.3095 43.6944 48.0568 45.4483 47.6304V50.808ZM31.5517 47.6373C33.3056 48.0637 35.0955 48.3163 36.8966 48.3916V51.6773C35.089 51.5962 33.2961 51.3069 31.5517 50.8148V47.6373ZM26.2069 46.7857V45.3537C26.662 45.6673 27.1365 45.9504 27.6273 46.2011C27.8598 46.3202 28.1003 46.4339 28.3448 46.5434V49.428C27.0086 48.5983 26.2069 47.6222 26.2069 46.7857ZM48.6552 49.428V46.5434C48.8997 46.4339 49.1402 46.3202 49.3727 46.2011C49.8636 45.9504 50.338 45.6673 50.7931 45.3537V46.7857C50.7931 47.6222 49.9914 48.5983 48.6552 49.428Z" fill="url(#paint2_radial_21_2494)"/>
<path d="M49.3727 34.2274C46.5279 32.7694 42.7759 32 38.5 32C34.2241 32 30.4721 32.7694 27.6273 34.2274C24.6863 35.7334 23 37.9157 23 40.2143V46.7857C23 49.0843 24.6863 51.2666 27.6273 52.7726C30.4721 54.2306 34.2308 55 38.5 55C42.7692 55 46.5279 54.2306 49.3727 52.7726C52.3124 51.2666 54 49.0843 54 46.7857V40.2143C54 37.9157 52.3137 35.7334 49.3727 34.2274ZM29.0624 37.1654C31.4288 35.9538 34.78 35.2857 38.5 35.2857C42.22 35.2857 45.5712 35.9538 47.9376 37.1654C49.6988 38.0676 50.7931 39.2368 50.7931 40.2143C50.7931 41.1918 49.6988 42.361 47.9376 43.2632C45.5712 44.4748 42.22 45.1429 38.5 45.1429C34.78 45.1429 31.4288 44.4748 29.0624 43.2632C27.3012 42.361 26.2069 41.1918 26.2069 40.2143C26.2069 39.2368 27.3012 38.0676 29.0624 37.1654ZM45.4483 50.808C43.7039 51.3001 41.911 51.5894 40.1034 51.6705V48.3848C41.9045 48.3095 43.6944 48.0568 45.4483 47.6304V50.808ZM31.5517 47.6373C33.3056 48.0637 35.0955 48.3163 36.8966 48.3916V51.6773C35.089 51.5962 33.2961 51.3069 31.5517 50.8148V47.6373ZM26.2069 46.7857V45.3537C26.662 45.6673 27.1365 45.9504 27.6273 46.2011C27.8598 46.3202 28.1003 46.4339 28.3448 46.5434V49.428C27.0086 48.5983 26.2069 47.6222 26.2069 46.7857ZM48.6552 49.428V46.5434C48.8997 46.4339 49.1402 46.3202 49.3727 46.2011C49.8636 45.9504 50.338 45.6673 50.7931 45.3537V46.7857C50.7931 47.6222 49.9914 48.5983 48.6552 49.428Z" fill="url(#paint3_radial_21_2494)" fill-opacity="0.2"/>
</g>
<defs>
<filter id="filter0_d_21_2494" x="-9.7" y="0.299999" width="96.4" height="88.4" filterUnits="userSpaceOnUse" color-interpolation-filters="sRGB">
<feFlood flood-opacity="0" result="BackgroundImageFix"/>
<feColorMatrix in="SourceAlpha" type="matrix" values="0 0 0 0 0 0 0 0 0 0 0 0 0 0 0 0 0 0 127 0" result="hardAlpha"/>
<feOffset dy="1"/>
<feGaussianBlur stdDeviation="16.35"/>
<feComposite in2="hardAlpha" operator="out"/>
<feColorMatrix type="matrix" values="0 0 0 0 0.0862745 0 0 0 0 0.545098 0 0 0 0 0.847059 0 0 0 0.78 0"/>
<feBlend mode="normal" in2="BackgroundImageFix" result="effect1_dropShadow_21_2494"/>
<feBlend mode="normal" in="SourceGraphic" in2="effect1_dropShadow_21_2494" result="shape"/>
</filter>
<radialGradient id="paint0_radial_21_2494" cx="0" cy="0" r="1" gradientUnits="userSpaceOnUse" gradientTransform="translate(33.4801 57.1563) rotate(-39.8968) scale(23.5323 27.6627)">
<stop stop-color="#6681E2" stop-opacity="0.81"/>
<stop offset="0.953677" stop-color="#6681E2" stop-opacity="0"/>
</radialGradient>
<radialGradient id="paint1_radial_21_2494" cx="0" cy="0" r="1" gradientUnits="userSpaceOnUse" gradientTransform="translate(29.2528 26.7891) rotate(95.2246) scale(24.1786 26.4484)">
<stop stop-color="#1D52A0"/>
<stop offset="1" stop-color="#1D52A0" stop-opacity="0.18"/>
</radialGradient>
<radialGradient id="paint2_radial_21_2494" cx="0" cy="0" r="1" gradientUnits="userSpaceOnUse" gradientTransform="translate(55.5852 28.4063) rotate(140.781) scale(42.0598 35.2622)">
<stop offset="0.196645" stop-color="#13E5D5" stop-opacity="0.5"/>
<stop offset="0.710624" stop-color="#13E5D5" stop-opacity="0.06"/>
</radialGradient>
<radialGradient id="paint3_radial_21_2494" cx="0" cy="0" r="1" gradientUnits="userSpaceOnUse" gradientTransform="translate(38.5 35.9531) rotate(90) scale(19.0469 34.1705)">
<stop stop-color="white" stop-opacity="0.49"/>
<stop offset="1" stop-color="white" stop-opacity="0.19"/>
</radialGradient>
</defs>
</svg>
