<svg width="31" height="23" viewBox="0 0 31 23" fill="none" xmlns="http://www.w3.org/2000/svg">
<path d="M26.3727 2.22744C23.5279 0.769405 19.7759 0 15.5 0C11.2241 0 7.47207 0.769405 4.62729 2.22744C1.68629 3.73339 0 5.91565 0 8.21429V14.7857C0 17.0843 1.68629 19.2666 4.62729 20.7726C7.47207 22.2306 11.2308 23 15.5 23C19.7692 23 23.5279 22.2306 26.3727 20.7726C29.3124 19.2666 31 17.0843 31 14.7857V8.21429C31 5.91565 29.3137 3.73339 26.3727 2.22744ZM6.06237 5.16542C8.42879 3.95381 11.78 3.28571 15.5 3.28571C19.22 3.28571 22.5712 3.95381 24.9376 5.16542C26.6988 6.06762 27.7931 7.23679 27.7931 8.21429C27.7931 9.19179 26.6988 10.361 24.9376 11.2632C22.5712 12.4748 19.22 13.1429 15.5 13.1429C11.78 13.1429 8.42879 12.4748 6.06237 11.2632C4.30125 10.361 3.2069 9.19179 3.2069 8.21429C3.2069 7.23679 4.30125 6.06762 6.06237 5.16542ZM22.4483 18.808C20.7039 19.3001 18.911 19.5894 17.1034 19.6705V16.3848C18.9045 16.3095 20.6944 16.0568 22.4483 15.6304V18.808ZM8.55172 15.6373C10.3056 16.0637 12.0955 16.3163 13.8966 16.3916V19.6773C12.089 19.5962 10.2961 19.3069 8.55172 18.8148V15.6373ZM3.2069 14.7857V13.3537C3.66199 13.6673 4.13645 13.9504 4.62729 14.2011C4.85978 14.3202 5.1003 14.4339 5.34483 14.5434V17.428C4.00862 16.5983 3.2069 15.6222 3.2069 14.7857ZM25.6552 17.428V14.5434C25.8997 14.4339 26.1402 14.3202 26.3727 14.2011C26.8636 13.9504 27.338 13.6673 27.7931 13.3537V14.7857C27.7931 15.6222 26.9914 16.5983 25.6552 17.428Z" fill="#D9D9D9" fill-opacity="0.3"/>
</svg>
