<svg width="96" height="87" viewBox="0 0 96 87" fill="none" xmlns="http://www.w3.org/2000/svg">
<g filter="url(#filter0_d_23_2974)">
<path d="M36.3333 47.75L33 33.3125L42.1667 39.875L48 32L53.8333 39.875L63 33.3125L59.6667 47.75H36.3333ZM59.6667 51.6875C59.6667 52.475 59 53 58 53H38C37 53 36.3333 52.475 36.3333 51.6875V50.375H59.6667V51.6875Z" fill="#D9D9D9" fill-opacity="0.3"/>
<path d="M36.3333 47.75L33 33.3125L42.1667 39.875L48 32L53.8333 39.875L63 33.3125L59.6667 47.75H36.3333ZM59.6667 51.6875C59.6667 52.475 59 53 58 53H38C37 53 36.3333 52.475 36.3333 51.6875V50.375H59.6667V51.6875Z" fill="#EEF9FF"/>
<path d="M36.3333 47.75L33 33.3125L42.1667 39.875L48 32L53.8333 39.875L63 33.3125L59.6667 47.75H36.3333ZM59.6667 51.6875C59.6667 52.475 59 53 58 53H38C37 53 36.3333 52.475 36.3333 51.6875V50.375H59.6667V51.6875Z" fill="url(#paint0_radial_23_2974)"/>
<path d="M36.3333 47.75L33 33.3125L42.1667 39.875L48 32L53.8333 39.875L63 33.3125L59.6667 47.75H36.3333ZM59.6667 51.6875C59.6667 52.475 59 53 58 53H38C37 53 36.3333 52.475 36.3333 51.6875V50.375H59.6667V51.6875Z" fill="url(#paint1_radial_23_2974)"/>
<path d="M36.3333 47.75L33 33.3125L42.1667 39.875L48 32L53.8333 39.875L63 33.3125L59.6667 47.75H36.3333ZM59.6667 51.6875C59.6667 52.475 59 53 58 53H38C37 53 36.3333 52.475 36.3333 51.6875V50.375H59.6667V51.6875Z" fill="url(#paint2_radial_23_2974)"/>
<path d="M36.3333 47.75L33 33.3125L42.1667 39.875L48 32L53.8333 39.875L63 33.3125L59.6667 47.75H36.3333ZM59.6667 51.6875C59.6667 52.475 59 53 58 53H38C37 53 36.3333 52.475 36.3333 51.6875V50.375H59.6667V51.6875Z" fill="url(#paint3_radial_23_2974)" fill-opacity="0.2"/>
</g>
<defs>
<filter id="filter0_d_23_2974" x="0.299999" y="0.299999" width="95.4" height="86.4" filterUnits="userSpaceOnUse" color-interpolation-filters="sRGB">
<feFlood flood-opacity="0" result="BackgroundImageFix"/>
<feColorMatrix in="SourceAlpha" type="matrix" values="0 0 0 0 0 0 0 0 0 0 0 0 0 0 0 0 0 0 127 0" result="hardAlpha"/>
<feOffset dy="1"/>
<feGaussianBlur stdDeviation="16.35"/>
<feComposite in2="hardAlpha" operator="out"/>
<feColorMatrix type="matrix" values="0 0 0 0 0.0862745 0 0 0 0 0.545098 0 0 0 0 0.847059 0 0 0 0.78 0"/>
<feBlend mode="normal" in2="BackgroundImageFix" result="effect1_dropShadow_23_2974"/>
<feBlend mode="normal" in="SourceGraphic" in2="effect1_dropShadow_23_2974" result="shape"/>
</filter>
<radialGradient id="paint0_radial_23_2974" cx="0" cy="0" r="1" gradientUnits="userSpaceOnUse" gradientTransform="translate(43.142 54.9688) rotate(-38.2657) scale(22.2526 25.8481)">
<stop stop-color="#6681E2" stop-opacity="0.81"/>
<stop offset="0.953677" stop-color="#6681E2" stop-opacity="0"/>
</radialGradient>
<radialGradient id="paint1_radial_23_2974" cx="0" cy="0" r="1" gradientUnits="userSpaceOnUse" gradientTransform="translate(39.0511 27.2422) rotate(95.5357) scale(22.0874 25.5821)">
<stop stop-color="#1D52A0"/>
<stop offset="1" stop-color="#1D52A0" stop-opacity="0.18"/>
</radialGradient>
<radialGradient id="paint2_radial_23_2974" cx="0" cy="0" r="1" gradientUnits="userSpaceOnUse" gradientTransform="translate(64.5341 28.7188) rotate(142.404) scale(39.7992 32.927)">
<stop offset="0.196645" stop-color="#13E5D5" stop-opacity="0.5"/>
<stop offset="0.710624" stop-color="#13E5D5" stop-opacity="0.06"/>
</radialGradient>
<radialGradient id="paint3_radial_23_2974" cx="0" cy="0" r="1" gradientUnits="userSpaceOnUse" gradientTransform="translate(48 35.6094) rotate(90) scale(17.3906 33.0682)">
<stop stop-color="white" stop-opacity="0.49"/>
<stop offset="1" stop-color="white" stop-opacity="0.19"/>
</radialGradient>
</defs>
</svg>
